<svg width="590" height="430" viewBox="0 0 590 430" fill="none" xmlns="http://www.w3.org/2000/svg">
<path opacity="0.3" d="M364.452 315.213L364.717 315.45L364.799 315.359L364.697 314.939L364.452 315.213ZM372.36 312.846C370.039 312.744 367.638 312.64 365.611 312.897L365.016 312.366L363.752 312.66C362.834 312.874 361.796 313.464 360.886 314.04C359.88 314.676 358.68 315.525 357.343 316.529C354.664 318.54 351.307 321.265 347.613 324.37L349.222 326.284C340.375 333.722 329.419 343.496 320.88 351.221L319.202 349.367C315.184 353.003 311.699 356.186 309.219 358.46C307.979 359.596 306.99 360.506 306.311 361.132C305.971 361.445 305.709 361.687 305.531 361.851L305.33 362.037L305.278 362.085L305.265 362.097L305.262 362.1L305.261 362.101L305.261 362.101C305.261 362.101 305.261 362.101 306.959 363.936L305.261 362.101L304.643 362.672L304.497 363.5L304.497 363.501L304.497 363.502L304.495 363.51L304.489 363.546C304.483 363.575 304.476 363.618 304.465 363.674C304.464 363.682 304.462 363.69 304.461 363.698C304.435 363.835 304.397 364.041 304.344 364.314C304.239 364.858 304.078 365.666 303.858 366.709C303.417 368.794 302.738 371.816 301.79 375.541L304.212 376.158C302.594 382.513 300.203 390.884 296.885 400.139L294.531 399.296C293.191 403.034 291.7 406.915 290.046 410.864L290.386 411.006L290.385 411.01C288.992 410.609 287.598 410.614 286.205 411.198L285.239 408.892C284.394 409.246 283.588 409.737 282.82 410.354L282.814 410.359L282.808 410.364C281.859 411.136 280.094 411.947 277.431 412.692C274.831 413.419 271.621 414.018 267.998 414.505L268.331 416.983C258.116 418.357 245.221 418.789 234.616 418.914L234.587 416.414C229.194 416.477 224.407 416.461 220.849 416.449C219.666 416.445 218.619 416.442 217.73 416.442C213.919 416.442 209.101 417.677 204.154 419.199L204.889 421.588C202.446 422.34 199.887 423.19 197.288 424.054C191.34 426.031 185.178 428.079 179.694 429.177L179.203 426.726C174.108 427.747 170.256 427.773 167.822 426.644C165.209 425.363 162.121 422.973 158.963 419.825L157.198 421.595C151.701 416.116 146.366 408.797 143.171 402.063L145.43 400.992C143.446 396.81 142.499 393.215 142.681 390.669C142.854 388.249 142.125 385.463 140.931 382.645C139.715 379.776 137.915 376.64 135.685 373.443L133.634 374.873C127.854 366.585 118.813 357.485 108.774 351.407L110.068 349.268C104.765 346.057 99.0994 343.602 93.3864 342.513C87.7461 341.438 81.0875 340.501 74.1462 339.564L73.812 342.042C72.6292 341.882 71.4362 341.722 70.2364 341.562C58.2787 339.96 45.6428 338.268 35.6491 335.804L36.2475 333.377C32.2571 332.393 28.7827 331.304 25.9981 330.082C23.2687 328.883 21.4017 327.641 20.3197 326.416C20.2899 326.371 20.2592 326.327 20.2275 326.283L20.2132 326.293C20.2123 326.292 20.2114 326.291 20.2106 326.29L20.1698 326.324L20.0531 326.408C18.8085 323.149 17.3704 320.197 15.8929 317.468L13.6944 318.658C12.4418 316.345 11.1476 314.173 9.90175 312.082C7.76466 308.495 5.76954 305.146 4.3692 301.73L6.68234 300.782C5.53731 297.989 4.86268 295.253 4.86268 292.334C4.86268 287.694 4.52834 283.304 4.116 278.982L1.6273 279.219C1.49616 277.845 1.35643 276.471 1.21605 275.091C0.513854 268.187 -0.2047 261.123 0.0538992 253.01L2.55263 253.09C2.67885 249.13 3.04361 244.914 3.76949 240.327L3.77181 240.313L3.77396 240.298C4.25676 236.993 5.09417 233.954 6.16062 231.18L3.82702 230.283C6.62232 223.009 10.9018 217.456 14.6359 213.623L16.4266 215.368C18.41 213.332 20.2282 211.809 21.5401 210.802C22.1954 210.299 22.7225 209.926 23.0784 209.683C23.2562 209.562 23.3911 209.474 23.4776 209.418C23.5208 209.39 23.5519 209.37 23.5702 209.359L23.5861 209.349L23.5868 209.348L23.5874 209.348L23.588 209.348L23.5885 209.347L23.5896 209.347L24.21 208.966L24.5288 208.309L24.5289 208.308L24.529 208.308L24.5292 208.308L24.5309 208.304L24.5408 208.284L24.5849 208.195C24.6249 208.114 24.6862 207.991 24.768 207.83C24.9318 207.508 25.1778 207.031 25.5008 206.427C26.1472 205.218 27.1003 203.502 28.3182 201.491L26.1797 200.196C28.4702 196.413 31.6737 191.614 35.5303 187.132L37.4253 188.763C39.1082 186.807 40.9042 184.932 42.7884 183.249C44.7522 181.532 46.1875 179.1 47.2626 176.385C48.3479 173.644 49.1303 170.449 49.6918 167.04L47.225 166.633C48.8484 156.776 48.6815 144.283 48.1029 134.232L50.5988 134.088C50.1724 126.681 49.5244 120.588 49.1956 117.797C49.0114 115.998 48.5971 113.279 48.0711 110.112L45.6049 110.522C45.0147 106.969 44.2679 102.761 43.5083 98.4797C43.3311 97.4811 43.1532 96.4784 42.9764 95.4793L45.4382 95.0437C45.0832 93.0373 44.7332 91.0478 44.4029 89.1339C44.7962 88.8292 45.1716 88.4995 45.5263 88.1437L43.7557 86.3787C44.9381 85.1926 45.7837 83.6766 46.1843 81.7983L48.6293 82.3198C48.8403 81.3305 48.9455 80.2852 48.9455 79.187C48.9455 77.3783 49.9585 74.6616 51.9468 71.2957L49.7943 70.0242C52.9254 64.7237 57.7221 58.9273 61.832 54.4302L63.6774 56.1167C66.5932 52.9261 69.1287 50.4316 70.4174 49.2811C71.6671 48.1653 72.361 46.3896 72.8301 44.8119C73.3355 43.112 73.7366 41.0542 74.1057 38.888L71.6412 38.468C71.8378 37.3146 72.0303 36.098 72.2288 34.8435C73.0103 29.9054 73.8846 24.3807 75.4616 19.8202L77.8243 20.6372C78.9484 17.3866 80.3122 15.0904 81.9324 13.8558C83.8983 12.418 87.2528 11.5294 91.7243 11.2035L91.5425 8.71011C98.7143 8.18735 107.443 9.11227 114.826 10.1386L114.482 12.6148C116.769 12.9327 118.928 13.2608 120.882 13.5599C121.063 13.5876 121.242 13.615 121.419 13.6422C123.151 13.9075 124.721 14.1481 126.038 14.3289L126.066 14.3328L126.094 14.336C129.778 14.7576 132.954 13.1601 135.582 11.3324L134.155 9.27977C135.533 8.32163 136.887 7.19491 138.245 6.0657C141.394 3.44616 144.559 0.813226 148.071 0.240384L148.474 2.70779C150.09 2.44421 151.964 2.75541 154.326 4.58278L154.329 4.58536C157.562 7.07836 161.247 8.38893 164.962 9.12505L165.448 6.67271C169.067 7.38968 172.894 7.55797 176.634 7.72244C180.025 7.87158 183.345 8.01758 186.374 8.56674L185.928 11.0266C189.322 11.642 191.965 12.7424 193.875 14.7574L193.888 14.771L193.901 14.7843C195.845 16.7757 197.614 19.5278 199.447 22.6621L201.605 21.3999C202.094 22.235 202.578 23.0809 203.061 23.9263C206.311 29.605 209.546 35.2587 213.997 37.4413L212.896 39.686C216.46 41.4336 220.495 41.3313 225.003 38.9596C228.089 37.3356 231.306 35.9384 234.547 34.7458L233.684 32.3995C240.964 29.7205 248.302 28.0689 254.54 27.1745L254.895 29.6492C258.986 29.0626 262.558 28.8149 265.266 28.8149C267.23 28.8149 270.333 29.8756 274.32 31.8209L275.416 29.5741C279.591 31.6111 284.212 34.333 288.625 36.9322C290.513 38.0439 292.362 39.1331 294.122 40.1367L292.884 42.3084C296.658 44.4606 300.288 46.3797 303.059 47.2043L303.069 47.2072L303.078 47.21C305.922 48.0316 310.474 48.8123 315.666 49.3845L315.94 46.8995C323.577 47.7411 332.887 48.1523 340.637 47.4939L340.848 49.9849C345.814 49.563 350.48 48.6926 353.759 47.041C356.797 45.5112 359.963 43.0909 363.091 40.559L361.518 38.6159C362.377 37.92 363.249 37.2034 364.13 36.4783C368.871 32.5784 373.912 28.4317 379.074 25.9347L380.162 28.1852C383.368 26.6346 386.395 25.8834 389.281 26.1926C393.088 26.6006 398.962 26.5759 405.504 26.4277L405.447 23.9284C408.381 23.8619 411.487 23.7692 414.655 23.6746C422.358 23.4447 430.427 23.2038 437.284 23.3027L437.248 25.8024C440.799 25.8537 443.968 25.9965 446.557 26.2727C449.218 26.5565 451.009 26.9582 451.971 27.4007C452.229 27.5194 452.497 27.643 452.775 27.7711C455.215 28.8959 458.394 30.3616 461.97 31.8167L462.912 29.5011C469.165 32.0455 476.652 34.5583 483.718 35.2094L483.489 37.6989C487.478 38.0665 491.482 37.8873 495.169 36.7682C499.033 35.5952 502.634 33.1162 505.938 30.2429L504.297 28.3565C507.685 25.4107 510.971 21.8319 514.151 18.3688C516.321 16.0056 518.441 13.6964 520.51 11.6788L522.256 13.4689C525.552 10.2555 528.309 8.2245 530.638 7.63792C532.696 7.11974 534.155 6.97522 535.244 7.04471L535.403 4.54979C538.931 4.77507 540.667 6.76333 543.145 9.60239C543.422 9.92033 543.709 10.249 544.009 10.587L542.138 12.2456C543.227 13.4739 544.518 14.8636 546.155 16.3251C547.66 17.6693 548.861 19.3073 550.042 21.1658L552.152 19.8245C552.602 20.5324 553.036 21.249 553.469 21.9632C555.447 25.2299 557.393 28.4442 560.702 30.5284L559.37 32.6437C560.758 33.5184 562.325 34.2094 564.118 34.6774C563.843 35.8329 563.596 36.9914 563.375 38.1396L565.83 38.612C564.995 42.9529 564.525 47.1998 564.274 50.6148L561.781 50.4319C561.585 53.0984 561.519 55.2861 561.519 56.6628C561.519 59.5227 563.038 62.3329 564.946 64.7313L566.903 63.1749C569.581 66.5417 573.794 69.8665 578.098 72.268L576.88 74.4512C579.257 75.7774 581.708 76.8642 584.02 77.5522C584.996 77.8427 585.63 78.2814 586.077 78.7915C586.539 79.3177 586.907 80.0419 587.155 81.0424L589.582 80.4413C590.542 84.3187 589.671 89.749 588.747 95.4268L586.279 95.025L586.252 95.1939C585.859 97.6082 585.447 100.138 585.169 102.618C584.938 104.684 583.742 106.197 581.527 107.463L582.767 109.633C579.124 111.714 574.011 112.688 569.331 113.579C568.226 113.79 567.146 113.995 566.115 114.21L565.605 111.763C563.777 112.143 561.98 112.574 560.435 113.14C558.937 113.689 557.372 114.469 556.287 115.723L556.262 115.751L556.239 115.78C554.909 117.412 551.572 121.882 547.616 127.479L549.658 128.921C544.531 136.176 538.302 145.42 533.96 153.008L531.79 151.766C530.025 154.851 528.526 157.737 527.525 160.158C527.026 161.366 526.625 162.519 526.385 163.561C526.159 164.545 526.01 165.702 526.269 166.784C526.595 168.14 526.532 170.666 525.935 173.908L528.394 174.361C527.457 179.45 525.429 185.407 522.789 189.723L520.656 188.418C519.021 191.092 517.438 192.565 516.188 193.004C513.236 194.039 511.447 196.375 510.38 198.922L512.686 199.887C511.2 203.434 510.99 208.33 511.035 212.618L508.535 212.644C508.55 213.999 508.584 215.157 508.615 216.197C508.646 217.247 508.673 218.178 508.673 219.072C508.673 219.152 508.59 219.649 507.699 220.678C506.865 221.641 505.621 222.736 504.034 223.987L505.582 225.95C504.352 226.92 502.995 227.925 501.595 228.963C498.053 231.587 494.232 234.417 491.47 237.414L489.632 235.72C487.149 238.413 485.038 241.673 485.038 245.389C485.038 246.567 484.498 248.706 483.271 251.804C482.084 254.805 480.374 258.417 478.312 262.409L480.533 263.557C475.103 274.069 467.429 286.854 460.904 297.479L458.773 296.171C456.881 299.253 455.075 302.168 453.449 304.795C451.479 307.975 449.772 310.732 448.488 312.851L448.483 312.859L448.479 312.866C447.279 314.879 446.072 316.966 444.886 319.016C444.542 319.612 444.199 320.204 443.859 320.791L446.021 322.045C442.285 328.488 438.708 334.476 435.801 337.153L434.108 335.314C433.714 335.676 433.414 335.889 433.206 336.008C433.184 335.972 433.16 335.931 433.135 335.885C432.895 335.449 432.614 334.705 432.354 333.525C431.501 329.649 429.273 325.769 426.408 322.3L424.48 323.892C419.579 317.955 412.284 312.803 405.587 310.832L406.292 308.434C401.711 307.086 396.85 306.952 392.978 309.434C391.031 310.682 388.947 311.516 386.791 312.062L387.405 314.486C382.29 315.783 377.024 315.552 372.612 315.359C372.534 315.356 372.455 315.352 372.378 315.349L372.487 312.851L372.36 312.846ZM17.9362 327.486C18.0102 327.531 18.1019 327.609 18.1979 327.742L19.6192 326.72L18.037 327.32L17.9362 327.486Z" fill="url(#paint0_linear_963_169)" stroke="url(#paint1_linear_963_169)" stroke-width="5" stroke-dasharray="30 30"/>
<defs>
<linearGradient id="paint0_linear_963_169" x1="295" y1="0.125977" x2="295" y2="429.991" gradientUnits="userSpaceOnUse">
<stop stop-color="#30C067"/>
<stop offset="0.420059" stop-color="white"/>
<stop offset="1" stop-color="white"/>
</linearGradient>
<linearGradient id="paint1_linear_963_169" x1="295" y1="0.125977" x2="295" y2="429.991" gradientUnits="userSpaceOnUse">
<stop stop-color="#750D86"/>
<stop offset="0.415059" stop-color="#EFEFEF"/>
<stop offset="1" stop-color="#30C067" stop-opacity="0.4"/>
</linearGradient>
</defs>
</svg>
