<svg width="458" height="362" viewBox="0 0 458 362" fill="none" xmlns="http://www.w3.org/2000/svg">
<path d="M457.061 317.702H0.00012207V317.942H457.061V317.702Z" fill="#EBEBEB"/>
<path d="M411.264 333.196H380.988V333.437H411.264V333.196Z" fill="#EBEBEB"/>
<path d="M302.776 335.815H294.832V336.056H302.776V335.815Z" fill="#EBEBEB"/>
<path d="M380.074 324.26H362.532V324.5H380.074V324.26Z" fill="#EBEBEB"/>
<path d="M87.4358 325.877H47.9549V326.118H87.4358V325.877Z" fill="#EBEBEB"/>
<path d="M101.367 325.877H95.5807V326.118H101.367V325.877Z" fill="#EBEBEB"/>
<path d="M205.815 329.941H120.18V330.182H205.815V329.941Z" fill="#EBEBEB"/>
<path d="M216.647 274.753H40.1392C38.7565 274.75 37.4312 274.17 36.4543 273.139C35.4774 272.108 34.9287 270.711 34.9287 269.254V7.87355C34.9407 6.42525 35.4947 5.04045 36.4703 4.01992C37.4459 2.9994 38.7643 2.42558 40.1392 2.4231H216.647C218.031 2.4231 219.359 3.00241 220.338 4.0336C221.317 5.06479 221.867 6.46337 221.867 7.92169V269.254C221.867 270.713 221.317 272.111 220.338 273.142C219.359 274.174 218.031 274.753 216.647 274.753ZM40.1392 2.61569C38.8171 2.61824 37.5499 3.17332 36.6159 4.15908C35.6818 5.14484 35.1572 6.48074 35.1572 7.87355V269.254C35.1572 270.647 35.6818 271.983 36.6159 272.969C37.5499 273.955 38.8171 274.51 40.1392 274.512H216.647C217.97 274.51 219.238 273.955 220.174 272.969C221.109 271.984 221.636 270.648 221.638 269.254V7.87355C221.636 6.47986 221.109 5.14398 220.174 4.15849C219.238 3.173 217.97 2.61824 216.647 2.61569H40.1392Z" fill="#EBEBEB"/>
<path d="M414.381 274.753H237.864C236.48 274.75 235.154 274.17 234.176 273.14C233.197 272.109 232.647 270.712 232.644 269.254V7.87355C232.659 6.42437 233.215 5.03958 234.192 4.01932C235.169 2.99906 236.488 2.42555 237.864 2.4231H414.381C415.754 2.42811 417.07 3.00305 418.044 4.0233C419.018 5.04356 419.57 6.42692 419.582 7.87355V269.254C419.582 270.709 419.035 272.105 418.06 273.136C417.085 274.166 415.762 274.748 414.381 274.753ZM237.864 2.61569C236.541 2.61824 235.273 3.173 234.337 4.15849C233.402 5.14398 232.875 6.47986 232.873 7.87355V269.254C232.875 270.648 233.402 271.984 234.337 272.969C235.273 273.955 236.541 274.51 237.864 274.512H414.381C415.704 274.51 416.972 273.955 417.907 272.969C418.843 271.984 419.37 270.648 419.372 269.254V7.87355C419.37 6.47986 418.843 5.14398 417.907 4.15849C416.972 3.173 415.704 2.61824 414.381 2.61569H237.864Z" fill="#EBEBEB"/>
<path d="M396.875 49.6957H253.002V159.234H396.875V49.6957Z" fill="#FAFAFA"/>
<path d="M385.467 159.225L334.496 49.6957H296.24L347.211 159.225H385.467Z" fill="white"/>
<path d="M339.139 159.225L288.168 49.6957H274.209L325.19 159.225H339.139Z" fill="white"/>
<path d="M243.44 44.4764H406.428C406.671 44.4764 406.903 44.5779 407.074 44.7585C407.246 44.9391 407.342 45.184 407.342 45.4394C407.342 45.6948 407.246 45.9398 407.074 46.1203C406.903 46.3009 406.671 46.4024 406.428 46.4024H243.44C243.198 46.4024 242.965 46.3009 242.794 46.1203C242.622 45.9398 242.526 45.6948 242.526 45.4394C242.526 45.184 242.622 44.9391 242.794 44.7585C242.965 44.5779 243.198 44.4764 243.44 44.4764Z" fill="#E0E0E0"/>
<path d="M326.122 49.3683H323.746V159.552H326.122V49.3683Z" fill="#F0F0F0"/>
<path d="M323.746 49.3683H322.557V159.552H323.746V49.3683Z" fill="#E0E0E0"/>
<path d="M251.612 103.208V105.712L398.256 105.712V103.208L251.612 103.208Z" fill="#F0F0F0"/>
<path d="M251.612 158.185V48.2321H398.256V158.185V160.688H251.612V158.185ZM395.879 158.185V50.7358H253.989V158.185H395.879Z" fill="#F0F0F0"/>
<path d="M251.612 48.2321H250.424V160.688H251.612V48.2321Z" fill="#E0E0E0"/>
<path opacity="0.5" d="M291.843 42.1844V165.59H259.629L265.534 42.1844H291.843Z" fill="#EBEBEB"/>
<path opacity="0.5" d="M273.56 42.1844V170.434H241.347L247.252 42.1844H273.56Z" fill="#EBEBEB"/>
<path opacity="0.5" d="M356.837 42.1844V165.59H389.06L383.145 42.1844H356.837Z" fill="#EBEBEB"/>
<path opacity="0.5" d="M375.119 42.1844V170.434H407.342L401.428 42.1844H375.119Z" fill="#EBEBEB"/>
<path d="M64.2629 308.39H196.838L196.838 24.5716H64.2629L64.2629 308.39Z" fill="#F0F0F0"/>
<path d="M185.832 302.448H75.2872C74.2292 302.441 73.2169 301.993 72.4705 301.203C71.7241 300.414 71.304 299.345 71.3016 298.231V34.7311C71.3041 33.6116 71.7279 32.5388 72.4802 31.7481C73.2326 30.9574 74.2519 30.5133 75.3146 30.5133H185.832C186.893 30.5158 187.91 30.961 188.661 31.7515C189.411 32.5419 189.833 33.6133 189.836 34.7311V298.231C189.833 299.348 189.411 300.42 188.661 301.21C187.91 302.001 186.893 302.446 185.832 302.448ZM75.2872 31.5726C74.4927 31.5751 73.7315 31.9087 73.1697 32.5005C72.608 33.0923 72.2913 33.8942 72.2889 34.7311V298.231C72.2889 299.068 72.6048 299.872 73.1671 300.464C73.7294 301.056 74.492 301.389 75.2872 301.389H185.832C186.627 301.389 187.39 301.056 187.952 300.464C188.514 299.872 188.83 299.068 188.83 298.231V34.7311C188.828 33.8942 188.511 33.0923 187.949 32.5005C187.388 31.9087 186.626 31.5751 185.832 31.5726H75.2872Z" fill="#E0E0E0"/>
<path d="M64.272 317.702H78.6968L82.7464 308.39H64.272V317.702Z" fill="#F0F0F0"/>
<path d="M184.296 317.702H169.871L165.813 308.39H184.296V317.702Z" fill="#E0E0E0"/>
<path d="M196.847 317.702H182.422L178.364 308.39H196.847V317.702Z" fill="#F0F0F0"/>
<path d="M64.2721 24.5715H51.3921V317.702H64.2721V24.5715Z" fill="#E0E0E0"/>
<path d="M130.555 302.448C130.489 302.448 130.424 302.435 130.363 302.408C130.302 302.381 130.246 302.342 130.2 302.293C130.153 302.244 130.116 302.186 130.091 302.121C130.065 302.057 130.052 301.988 130.052 301.919V31.0429C130.052 30.9025 130.105 30.7678 130.2 30.6684C130.294 30.5691 130.422 30.5133 130.555 30.5133C130.688 30.5133 130.816 30.5691 130.911 30.6684C131.005 30.7678 131.058 30.9025 131.058 31.0429V301.909C131.06 301.98 131.049 302.05 131.025 302.116C131.001 302.182 130.964 302.242 130.917 302.293C130.87 302.343 130.813 302.383 130.751 302.41C130.689 302.437 130.622 302.45 130.555 302.448Z" fill="#E0E0E0"/>
<path d="M119.494 161.825C121.403 161.825 122.95 160.195 122.95 158.185C122.95 156.174 121.403 154.545 119.494 154.545C117.586 154.545 116.039 156.174 116.039 158.185C116.039 160.195 117.586 161.825 119.494 161.825Z" fill="#E0E0E0"/>
<path d="M141.616 161.825C143.524 161.825 145.071 160.195 145.071 158.185C145.071 156.174 143.524 154.545 141.616 154.545C139.708 154.545 138.161 156.174 138.161 158.185C138.161 160.195 139.708 161.825 141.616 161.825Z" fill="#E0E0E0"/>
<path d="M274.072 205.515H239.445V312.646H274.072V205.515Z" fill="#F0F0F0"/>
<path d="M400.139 312.646H246.1V317.702H400.139V312.646Z" fill="#F0F0F0"/>
<path d="M274.081 312.646H406.794V205.515H274.081V312.646Z" fill="#F5F5F5"/>
<path d="M276.486 272.163H404.38V245.999L276.486 245.999V272.163Z" fill="#F0F0F0"/>
<path d="M276.486 303.093H404.38V276.929H276.486V303.093Z" fill="#F0F0F0"/>
<path d="M276.486 241.232L404.38 241.232V215.068L276.486 215.068V241.232Z" fill="#F0F0F0"/>
<path d="M411.401 201.114H274.072V205.515H411.401V201.114Z" fill="#F0F0F0"/>
<path d="M234.61 205.515H274.072V201.114H234.61V205.515Z" fill="#E6E6E6"/>
<path d="M228.531 361.19C326.417 361.19 405.77 356.309 405.77 350.289C405.77 344.269 326.417 339.388 228.531 339.388C130.644 339.388 51.2915 344.269 51.2915 350.289C51.2915 356.309 130.644 361.19 228.531 361.19Z" fill="#F5F5F5"/>
<path d="M98.7253 54.6165C95.1511 52.0068 97.4729 40.9904 109.146 37.4466C120.82 33.9028 131.908 44.64 137.118 54.4239C142.329 64.2077 150.465 64.747 151.744 60.0862C155.757 63.784 156.717 80.1065 139.55 80.6939C145.565 87.0399 129.495 99.8957 109.174 91.1807C88.8528 82.4658 93.1217 58.921 98.7253 54.6165Z" fill="#263238"/>
<path opacity="0.4" d="M98.7253 54.6165C95.1511 52.0068 97.4729 40.9904 109.146 37.4466C120.82 33.9028 131.908 44.64 137.118 54.4239C142.329 64.2077 150.465 64.747 151.744 60.0862C155.757 63.784 156.717 80.1065 139.55 80.6939C145.565 87.0399 129.495 99.8957 109.174 91.1807C88.8528 82.4658 93.1217 58.921 98.7253 54.6165Z" fill="white"/>
<path d="M149.002 350.289C143.974 350.289 139.157 349.933 135.199 349.856C131.817 349.788 130.628 350.347 127.886 350.279C125.61 350.231 125.701 347.939 126.396 345.301C126.752 343.972 127.31 342.354 127.776 340.216H138.471C139.925 343.105 145.327 345.753 149.295 346.312C153.088 346.851 151.808 350.289 149.002 350.289Z" fill="#263238"/>
<path d="M225.011 333.822C218.091 334.015 215.751 333.62 211.857 333.591C208.521 333.591 208.027 334.323 204.645 334.419C202.414 334.487 201.902 331.848 202.597 329.835C203.202 328.154 203.378 326.334 203.109 324.558L212.15 321.342C213.64 323.528 216.775 327.717 225.989 329.662C229.682 330.452 227.781 333.745 225.011 333.822Z" fill="#263238"/>
<path d="M160.886 145.339C160.886 145.339 177.102 191.87 186.134 222.463C194.672 252.441 212.14 321.342 212.14 321.342C212.47 322.911 204.709 324.991 203.1 324.558C203.1 324.558 174.424 279.837 167.294 229.483C141.104 194.508 128.718 153.61 128.718 153.61L160.886 145.339Z" fill="#750D86"/>
<path d="M151.242 147.833C151.242 147.833 153.783 209.829 148.691 239.21C143.353 270.025 137.347 319.974 138.48 340.245C136.826 341.256 131.04 341.314 127.785 340.245C127.785 340.245 113.443 271.951 128.59 241.684C121.204 169.702 124.019 154.814 124.019 154.814L151.242 147.833Z" fill="#750D86"/>
<path d="M139.285 335.998C139.316 337.392 139.441 338.783 139.66 340.158C139.681 340.274 139.679 340.392 139.655 340.507C139.631 340.622 139.585 340.73 139.52 340.826C139.455 340.921 139.372 341.002 139.277 341.062C139.182 341.123 139.075 341.163 138.965 341.179C135.052 341.843 129.394 340.89 127.593 340.543C127.426 340.514 127.271 340.429 127.153 340.301C127.035 340.173 126.958 340.008 126.935 339.831L126.35 335.931C126.337 335.808 126.349 335.684 126.385 335.567C126.421 335.45 126.48 335.342 126.559 335.251C126.638 335.16 126.734 335.088 126.842 335.039C126.949 334.99 127.065 334.966 127.182 334.968L138.48 335.199C138.685 335.201 138.882 335.284 139.031 335.432C139.18 335.581 139.271 335.783 139.285 335.998Z" fill="#263238"/>
<path opacity="0.1" d="M139.285 335.998C139.316 337.392 139.441 338.783 139.66 340.158C139.681 340.274 139.679 340.392 139.655 340.507C139.631 340.622 139.585 340.73 139.52 340.826C139.455 340.921 139.372 341.002 139.277 341.062C139.182 341.123 139.075 341.163 138.965 341.179C135.052 341.843 129.394 340.89 127.593 340.543C127.426 340.514 127.271 340.429 127.153 340.301C127.035 340.173 126.958 340.008 126.935 339.831L126.35 335.931C126.337 335.808 126.349 335.684 126.385 335.567C126.421 335.45 126.48 335.342 126.559 335.251C126.638 335.16 126.734 335.088 126.842 335.039C126.949 334.99 127.065 334.966 127.182 334.968L138.48 335.199C138.685 335.201 138.882 335.284 139.031 335.432C139.18 335.581 139.271 335.783 139.285 335.998Z" fill="white"/>
<path d="M211.665 316.864C212.067 317.827 212.79 319.657 213.375 320.957C213.423 321.06 213.451 321.173 213.458 321.288C213.465 321.404 213.45 321.519 213.414 321.628C213.379 321.737 213.323 321.838 213.25 321.924C213.177 322.011 213.089 322.081 212.991 322.132C209.746 323.597 206.38 324.745 202.935 325.56C202.764 325.611 202.581 325.601 202.416 325.532C202.25 325.462 202.111 325.336 202.021 325.175L200.001 321.785C199.936 321.677 199.895 321.554 199.88 321.427C199.866 321.3 199.878 321.171 199.917 321.049C199.955 320.928 200.019 320.817 200.103 320.724C200.187 320.631 200.29 320.56 200.403 320.514L210.541 316.431C210.641 316.378 210.75 316.347 210.862 316.341C210.974 316.334 211.086 316.351 211.192 316.392C211.297 316.432 211.393 316.495 211.475 316.576C211.556 316.658 211.621 316.756 211.665 316.864Z" fill="#263238"/>
<path opacity="0.1" d="M211.665 316.864C212.067 317.827 212.79 319.657 213.375 320.957C213.423 321.06 213.451 321.173 213.458 321.288C213.465 321.404 213.45 321.519 213.414 321.628C213.379 321.737 213.323 321.838 213.25 321.924C213.177 322.011 213.089 322.081 212.991 322.132C209.746 323.597 206.38 324.745 202.935 325.56C202.764 325.611 202.581 325.601 202.416 325.532C202.25 325.462 202.111 325.336 202.021 325.175L200.001 321.785C199.936 321.677 199.895 321.554 199.88 321.427C199.866 321.3 199.878 321.171 199.917 321.049C199.955 320.928 200.019 320.817 200.103 320.724C200.187 320.631 200.29 320.56 200.403 320.514L210.541 316.431C210.641 316.378 210.75 316.347 210.862 316.341C210.974 316.334 211.086 316.351 211.192 316.392C211.297 316.432 211.393 316.495 211.475 316.576C211.556 316.658 211.621 316.756 211.665 316.864Z" fill="white"/>
<path d="M148.71 95.1482L149.112 95.7742L149.614 96.5349C149.971 97.0453 150.328 97.5749 150.702 98.0853C151.452 99.1157 152.22 100.146 153.033 101.138C154.648 103.134 156.369 105.031 158.189 106.82C159.996 108.581 161.91 110.215 163.921 111.711C165.919 113.16 168.018 114.448 170.201 115.563L167.522 115.082C167.691 115.14 167.874 115.14 168.043 115.082C168.433 115 168.803 114.837 169.131 114.6C170.212 113.795 171.171 112.82 171.974 111.711C172.98 110.367 173.896 108.952 174.716 107.474C175.63 105.972 176.453 104.258 177.239 102.756L177.395 102.457C177.762 101.75 178.348 101.197 179.054 100.887C179.761 100.578 180.546 100.532 181.281 100.756C182.016 100.981 182.657 101.462 183.097 102.122C183.537 102.781 183.75 103.579 183.702 104.383C183.558 106.554 183.23 108.706 182.724 110.816C182.219 112.991 181.515 115.11 180.622 117.143C179.617 119.464 178.248 121.59 176.572 123.431C175.529 124.532 174.34 125.469 173.043 126.214C171.548 127.062 169.907 127.589 168.217 127.764C167.459 127.846 166.694 127.747 165.977 127.475L165.529 127.292C162.559 126.142 159.697 124.701 156.982 122.988C155.62 122.14 154.322 121.216 153.033 120.272C151.744 119.329 150.547 118.289 149.377 117.239C147.011 115.127 144.802 112.829 142.768 110.363C141.753 109.121 140.766 107.869 139.843 106.511C139.376 105.847 138.928 105.173 138.48 104.479L137.822 103.411L137.484 102.842L137.1 102.168C136.199 100.589 135.92 98.7004 136.321 96.9066C136.722 95.1127 137.773 93.5549 139.249 92.5653C140.725 91.5757 142.509 91.2325 144.222 91.6088C145.934 91.9852 147.44 93.0513 148.417 94.5801L148.71 95.1482Z" fill="#FFC3BD"/>
<path d="M138.49 88.2051C145.611 87.8103 150.629 92.9719 160.273 103.979C159.816 109.121 150.282 116.372 150.282 116.372C150.282 116.372 129.394 100.348 138.49 88.2051Z" fill="#263238"/>
<path d="M152.421 99.0193C154.007 104.897 155.306 110.856 156.315 116.873C157.814 124.673 159.057 132.396 160.886 145.339L123.964 154.785C122.136 143.644 118.086 131.472 105.773 108.514C105.091 107.326 104.67 105.992 104.539 104.61C104.408 103.228 104.571 101.832 105.017 100.525C105.463 99.218 106.18 98.032 107.115 97.0536C108.051 96.0751 109.182 95.3288 110.426 94.8689C111.852 94.3392 113.37 93.8096 114.997 93.3281C120.478 91.4769 126.077 90.0416 131.753 89.0332C133.581 88.7444 135.565 88.5036 137.429 88.3014C140.719 87.9906 144.008 88.8881 146.741 90.8417C149.474 92.7952 151.48 95.6845 152.421 99.0193Z" fill="#263238"/>
<path d="M111.523 73.1056C114.265 78.4212 118.489 88.3688 115.856 93.0585C115.856 93.0585 120.783 90.9399 133.224 95.2348C135.272 89.6881 132.584 88.7732 132.584 88.7732C126.112 88.8214 124.851 84.1702 124.568 79.5672L111.523 73.1056Z" fill="#FFC3BD"/>
<path d="M130.656 94.3971C127.209 95.8416 128.718 103.882 128.718 103.882C128.718 103.882 116.011 97.5075 113.333 93.5689L116.24 90.9111C116.24 90.9111 128.069 92.76 130.656 94.3971Z" fill="#750D86"/>
<path d="M133.919 92.9429C133.919 92.9429 138.992 94.4548 141.159 98.7208C140.071 90.2274 134.285 88.3303 134.285 88.3303C133.169 88.0022 131.978 88.1187 130.939 88.6577C131.832 88.894 132.619 89.4515 133.163 90.234C133.707 91.0165 133.974 91.9747 133.919 92.9429Z" fill="#750D86"/>
<path opacity="0.2" d="M116.871 75.7443L124.613 79.5962C124.664 80.6792 124.804 81.7555 125.034 82.8125C122.639 83.0533 118.681 81.2525 117.666 78.8258C117.223 77.859 116.953 76.8143 116.871 75.7443Z" fill="black"/>
<path d="M104.301 62.8884C108.049 71.6418 109.466 75.4071 115.445 78.5464C124.449 83.2553 133.91 77.1212 132.74 67.5203C131.679 58.8535 125.719 46.0074 116.048 45.2755C113.975 45.0429 111.88 45.399 109.982 46.3068C108.083 47.2147 106.45 48.6412 105.252 50.4383C104.053 52.2354 103.333 54.3377 103.166 56.5269C102.999 58.7161 103.391 60.9126 104.301 62.8884Z" fill="#FFC3BD"/>
<path opacity="0.2" d="M115.856 60.317C115.002 60.0831 114.095 60.2145 113.333 60.6825C114.189 60.7382 115.046 60.6139 115.856 60.317Z" fill="black"/>
<path opacity="0.2" d="M115.893 60.9625C115.496 60.9434 115.1 61.0153 114.732 61.1733C114.364 61.3312 114.034 61.5714 113.763 61.8773C114.527 61.7378 115.254 61.4257 115.893 60.9625Z" fill="black"/>
<path opacity="0.2" d="M127.913 57.1103C127.913 57.1103 128.444 56.3211 128.91 56.6868C128.779 56.8231 128.623 56.9306 128.452 57.0033C128.281 57.076 128.098 57.1124 127.913 57.1103Z" fill="black"/>
<path opacity="0.2" d="M128.078 57.6977C128.078 57.6977 128.499 56.9855 128.855 57.5822C128.753 57.6842 128.624 57.75 128.484 57.7707C128.345 57.7914 128.203 57.7659 128.078 57.6977Z" fill="black"/>
<path opacity="0.2" d="M122.492 50.1771C122.492 50.1771 117.62 50.4371 115.298 51.8238C117.74 51.5119 120.148 50.9606 122.492 50.1771Z" fill="black"/>
<path d="M117.008 60.895C117.291 61.6461 117.922 62.1179 118.361 61.9639C118.799 61.8098 118.964 61.0683 118.681 60.3268C118.397 59.5853 117.767 59.0942 117.328 59.2483C116.889 59.4024 116.734 60.1438 117.008 60.895Z" fill="#263238"/>
<path d="M125.783 58.0638C126.067 58.8149 126.697 59.2964 127.136 59.1327C127.575 58.969 127.749 58.2468 127.465 57.4957C127.182 56.7445 126.551 56.2631 126.103 56.4171C125.655 56.5712 125.5 57.3127 125.783 58.0638Z" fill="#263238"/>
<path d="M125.92 56.5327L127.42 55.4349C127.42 55.4349 127.063 57.1394 125.92 56.5327Z" fill="#263238"/>
<path d="M124.942 59.4891C126.227 60.9833 127.686 62.3002 129.284 63.4085C128.699 64.6507 126.953 64.7662 126.953 64.7662L124.942 59.4891Z" fill="#ED847E"/>
<path d="M123.928 68.9263C124.346 68.864 124.759 68.7641 125.162 68.6278C125.188 68.6183 125.213 68.603 125.234 68.583C125.255 68.5629 125.271 68.5384 125.282 68.5112C125.293 68.484 125.299 68.4545 125.299 68.4249C125.299 68.3952 125.292 68.3659 125.281 68.3389C125.26 68.2786 125.218 68.2291 125.164 68.2004C125.109 68.1717 125.046 68.1662 124.988 68.1848C124.079 68.5025 123.113 68.5991 122.163 68.4674C121.213 68.3356 120.304 67.9789 119.503 67.4241C119.483 67.4025 119.459 67.3854 119.432 67.3737C119.405 67.3621 119.377 67.3561 119.348 67.3561C119.319 67.3561 119.29 67.3621 119.264 67.3737C119.237 67.3854 119.213 67.4025 119.193 67.4241C119.175 67.4492 119.163 67.4777 119.156 67.5079C119.15 67.5381 119.149 67.5695 119.154 67.6C119.159 67.6306 119.17 67.6597 119.186 67.6858C119.202 67.7118 119.223 67.7341 119.247 67.7515C120.617 68.7374 122.283 69.1558 123.928 68.9263Z" fill="#263238"/>
<path d="M125.61 48.0972C124.366 43.5905 107.026 39.0837 103.067 51.2654C98.963 52.681 102.519 67.7323 107.857 69.2827C113.662 70.9679 111.953 59.807 107.857 53.9425C111.029 52.9024 113.991 50.8224 114.649 48.6846C119.659 52.1128 126.944 52.9506 125.61 48.0972Z" fill="#263238"/>
<path opacity="0.4" d="M125.61 48.0972C124.366 43.5905 107.026 39.0837 103.067 51.2654C98.963 52.681 102.519 67.7323 107.857 69.2827C113.662 70.9679 111.953 59.807 107.857 53.9425C111.029 52.9024 113.991 50.8224 114.649 48.6846C119.659 52.1128 126.944 52.9506 125.61 48.0972Z" fill="white"/>
<path d="M104.274 72.2003C104.868 72.8721 105.589 73.4058 106.39 73.7673C107.191 74.1288 108.055 74.3101 108.927 74.2996C111.084 74.1744 111.203 71.4877 109.841 69.321C108.58 67.3951 105.947 65.0839 104.164 66.2684C102.382 67.4528 102.629 70.4381 104.274 72.2003Z" fill="#FFC3BD"/>
<path d="M112.867 56.6678C112.928 56.647 112.985 56.6132 113.034 56.5685C113.083 56.5238 113.122 56.4691 113.15 56.4077C113.397 55.8418 113.763 55.3428 114.221 54.9489C114.679 54.555 115.216 54.2766 115.792 54.1351C115.852 54.127 115.91 54.1061 115.962 54.0738C116.014 54.0415 116.059 53.9983 116.095 53.9471C116.131 53.8958 116.157 53.8374 116.171 53.7753C116.185 53.7133 116.186 53.649 116.176 53.5862C116.142 53.4598 116.063 53.3519 115.956 53.284C115.85 53.2161 115.722 53.1933 115.6 53.2203C114.864 53.3946 114.177 53.7461 113.591 54.2474C113.006 54.7486 112.539 55.3859 112.227 56.1092C112.204 56.1678 112.193 56.2307 112.195 56.294C112.196 56.3573 112.21 56.4196 112.236 56.4768C112.262 56.534 112.299 56.5848 112.345 56.626C112.39 56.6672 112.444 56.6978 112.501 56.7159C112.625 56.744 112.754 56.727 112.867 56.6678Z" fill="#263238"/>
<path d="M128.261 53.172C128.312 53.1507 128.36 53.1183 128.399 53.0768C128.438 53.0354 128.469 52.9858 128.489 52.9312C128.51 52.8743 128.519 52.8137 128.518 52.7529C128.516 52.692 128.503 52.6322 128.479 52.5767C128.455 52.5212 128.421 52.4712 128.379 52.4296C128.337 52.388 128.287 52.3556 128.233 52.3342C127.577 52.021 126.862 51.8711 126.142 51.8961C125.422 51.9212 124.718 52.1205 124.083 52.4786C124.035 52.5103 123.993 52.5525 123.962 52.6023C123.93 52.6522 123.908 52.7085 123.899 52.7677C123.889 52.8269 123.892 52.8875 123.906 52.9456C123.921 53.0037 123.947 53.0578 123.983 53.1046C124.052 53.2062 124.156 53.2766 124.273 53.3015C124.39 53.3265 124.511 53.3043 124.613 53.2394C125.12 52.9636 125.68 52.8133 126.25 52.7999C126.821 52.7866 127.386 52.9105 127.904 53.1623C128.017 53.2132 128.145 53.2166 128.261 53.172Z" fill="#263238"/>
<path d="M120.856 66.2105C118.863 66.2105 116.752 63.986 116.075 61.0971C115.848 60.3209 115.778 59.5029 115.871 58.6965C115.964 57.8901 116.218 57.1134 116.615 56.417C116.837 56.0733 117.128 55.7854 117.467 55.5739C117.807 55.3625 118.187 55.2328 118.58 55.1941C120.655 54.9918 122.904 57.2837 123.617 60.2978C123.843 61.0747 123.911 61.8931 123.816 62.6995C123.722 63.5059 123.467 64.2823 123.068 64.9779C122.847 65.3226 122.556 65.6112 122.217 65.8228C121.877 66.0343 121.496 66.1635 121.103 66.2009L120.856 66.2105ZM118.836 55.7141H118.626C118.311 55.7448 118.005 55.8467 117.731 56.0128C117.456 56.179 117.219 56.4056 117.035 56.677C116.68 57.3093 116.454 58.0134 116.374 58.7433C116.294 59.4733 116.36 60.2129 116.569 60.9141C117.218 63.6779 119.238 65.7964 121.057 65.6135C121.375 65.5873 121.683 65.4874 121.96 65.3209C122.236 65.1544 122.474 64.9255 122.657 64.6505C123.009 64.0166 123.232 63.3128 123.312 62.5835C123.392 61.8541 123.328 61.1152 123.123 60.4134C122.492 57.7652 120.609 55.7141 118.836 55.7141Z" fill="white"/>
<path d="M129.943 62.3589C127.95 62.3589 125.847 60.1248 125.162 57.2359C124.938 56.4606 124.871 55.6449 124.964 54.8407C125.057 54.0366 125.308 53.2616 125.701 52.5654C125.923 52.2187 126.215 51.9282 126.557 51.715C126.898 51.5018 127.28 51.3713 127.676 51.3328C129.732 51.1306 131.99 53.4321 132.703 56.4366C132.931 57.2128 133 58.0308 132.907 58.8372C132.814 59.6436 132.561 60.4203 132.164 61.1166C131.942 61.4621 131.649 61.7511 131.308 61.9626C130.966 62.1741 130.584 62.3029 130.189 62.3396L129.943 62.3589ZM127.932 51.8624H127.721C127.404 51.8879 127.095 51.9875 126.818 52.1541C126.542 52.3206 126.304 52.55 126.122 52.8254C125.766 53.4575 125.54 54.1615 125.46 54.8916C125.379 55.6217 125.446 56.3614 125.655 57.0625C126.314 59.8263 128.325 61.9352 130.144 61.7618C130.461 61.7364 130.77 61.6368 131.047 61.4702C131.323 61.3036 131.561 61.0743 131.743 60.7989C132.099 60.1666 132.324 59.4626 132.404 58.7326C132.485 58.0026 132.418 57.263 132.21 56.5618C131.579 53.9136 129.696 51.8624 127.977 51.8624H127.932Z" fill="white"/>
<path d="M123.087 59.6817C123.026 59.6797 122.968 59.6559 122.922 59.6143C122.898 59.59 122.879 59.5609 122.866 59.5286C122.853 59.4963 122.846 59.4616 122.846 59.4265C122.846 59.3914 122.853 59.3567 122.866 59.3244C122.879 59.2922 122.898 59.263 122.922 59.2387C122.995 59.1521 124.641 57.1395 125.92 58.0447C125.948 58.0636 125.972 58.0881 125.99 58.1168C126.009 58.1454 126.022 58.1777 126.029 58.2117C126.036 58.2456 126.036 58.2807 126.03 58.3148C126.024 58.349 126.012 58.3815 125.994 58.4106C125.976 58.4397 125.952 58.4647 125.925 58.4843C125.898 58.504 125.867 58.5177 125.835 58.5249C125.803 58.532 125.77 58.5324 125.737 58.526C125.705 58.5196 125.674 58.5066 125.646 58.4876C124.732 57.8617 123.324 59.5662 123.315 59.5854C123.286 59.618 123.25 59.6435 123.211 59.6601C123.172 59.6767 123.129 59.6841 123.087 59.6817Z" fill="white"/>
<path d="M117.145 59.3639L118.653 58.2758C118.653 58.2758 118.315 59.9706 117.145 59.3639Z" fill="#263238"/>
<path d="M180.082 92.943L177.952 94.9171C177.559 95.2823 177.255 95.7411 177.064 96.2553C176.873 96.7695 176.801 97.3243 176.855 97.8735L177.367 103.093C177.466 104.123 177.798 105.113 178.336 105.979C178.874 106.845 179.601 107.563 180.457 108.071L181.526 108.707C185.265 105.693 187.203 99.5202 187.203 99.5202L187.934 97.835C188.249 97.1453 188.291 96.3524 188.051 95.6302C187.811 94.9081 187.309 94.3157 186.655 93.9831L183.492 92.4038C182.935 92.1365 182.316 92.0452 181.711 92.1409C181.106 92.2367 180.54 92.5153 180.082 92.943Z" fill="#FFC3BD"/>
<path d="M115.18 108.639L115.792 116.546C115.993 119.213 116.249 121.871 116.487 124.519C116.724 127.167 117.026 129.796 117.337 132.415C117.648 135.035 118.041 137.596 118.47 140.119L116.907 137.144C117.299 137.628 117.758 138.047 118.269 138.386C119.051 138.94 119.866 139.438 120.71 139.878C122.538 140.841 124.522 141.756 126.588 142.594C128.654 143.432 130.775 144.26 132.923 145.059L139.386 147.409H139.468C140.217 147.687 140.848 148.234 141.252 148.955C141.655 149.675 141.804 150.522 141.673 151.347C141.542 152.172 141.139 152.921 140.535 153.464C139.931 154.007 139.165 154.307 138.371 154.313C135.884 154.313 133.508 154.15 131.058 153.909C128.608 153.668 126.231 153.293 123.8 152.811C121.294 152.324 118.823 151.654 116.405 150.808C115.075 150.346 113.777 149.789 112.52 149.142C110.947 148.355 109.498 147.319 108.223 146.07C107.55 145.412 107.06 144.573 106.806 143.644L106.66 143.104C105.892 140.283 105.216 137.471 104.676 134.659C104.137 131.847 103.634 129.035 103.25 126.233C102.866 123.431 102.537 120.609 102.263 117.797C101.989 114.986 101.815 112.212 101.733 109.265C101.686 107.425 102.322 105.639 103.505 104.284C104.688 102.93 106.325 102.114 108.07 102.01C109.814 101.906 111.528 102.522 112.849 103.727C114.169 104.933 114.992 106.632 115.143 108.466L115.18 108.639Z" fill="#FFC3BD"/>
<path d="M110.097 94.9749C104.311 97.4979 102.345 100.04 100.371 114.013C104.868 120.359 117.995 120.359 117.995 120.359C117.995 120.359 117.008 102.178 110.097 94.9749Z" fill="#263238"/>
<path d="M297.422 89.3487L296.849 90.1602L301.588 93.8718L302.16 93.0603L297.422 89.3487Z" fill="#750D86"/>
<path d="M281.364 76.7689L280.791 77.5803L292.968 87.1179L293.541 86.3065L281.364 76.7689Z" fill="#750D86"/>
<path d="M239.345 61.9928L142.137 153.774L251.384 148.497L360.621 143.23L255.836 61.1646C253.418 59.278 250.455 58.3299 247.45 58.4808C244.445 58.6317 241.581 59.8725 239.345 61.9928Z" fill="#750D86"/>
<path opacity="0.5" d="M239.345 61.9928L142.137 153.774L251.384 148.497L360.621 143.23L255.836 61.1646C253.418 59.278 250.455 58.3299 247.45 58.4808C244.445 58.6317 241.581 59.8725 239.345 61.9928Z" fill="white"/>
<path d="M361.791 291.316L153.801 301.389C151.425 301.491 149.108 300.6 147.353 298.91C145.598 297.22 144.548 294.868 144.431 292.366L138.627 158.763C138.522 156.258 139.362 153.812 140.963 151.957C142.565 150.103 144.797 148.99 147.174 148.863L355.173 138.839C357.546 138.734 359.862 139.62 361.618 141.304C363.375 142.988 364.429 145.334 364.552 147.833L370.357 281.436C370.456 283.941 369.611 286.385 368.007 288.236C366.402 290.087 364.168 291.194 361.791 291.316Z" fill="#750D86"/>
<path opacity="0.8" d="M361.791 291.316L153.801 301.389C151.425 301.491 149.108 300.6 147.353 298.91C145.598 297.22 144.548 294.868 144.431 292.366L138.627 158.763C138.522 156.258 139.362 153.812 140.963 151.957C142.565 150.103 144.797 148.99 147.174 148.863L355.173 138.839C357.546 138.734 359.862 139.62 361.618 141.304C363.375 142.988 364.429 145.334 364.552 147.833L370.357 281.436C370.456 283.941 369.611 286.385 368.007 288.236C366.402 290.087 364.168 291.194 361.791 291.316Z" fill="white"/>
<path opacity="0.2" d="M252.481 240.432L155.757 156.336C155.087 155.756 154.599 154.975 154.359 154.097C154.118 153.219 154.137 152.284 154.411 151.417C154.685 150.55 155.203 149.791 155.895 149.241C156.588 148.69 157.423 148.374 158.29 148.333L251.164 143.856L344.039 139.368C344.902 139.329 345.756 139.565 346.489 140.046C347.222 140.526 347.8 141.229 348.148 142.061C348.495 142.894 348.596 143.818 348.437 144.712C348.279 145.606 347.867 146.428 347.257 147.072L258.23 240.134C257.479 240.928 256.474 241.399 255.41 241.454C254.347 241.51 253.303 241.145 252.481 240.432Z" fill="#750D86"/>
<path d="M339.534 121.614L197.945 73.093C193.461 71.5564 188.644 74.14 187.185 78.8637L157.849 173.863C156.391 178.586 158.843 183.661 163.327 185.198L304.916 233.719C309.4 235.256 314.218 232.672 315.676 227.949L345.012 132.95C346.471 128.226 344.018 123.151 339.534 121.614Z" fill="#750D86"/>
<path d="M338.516 121.272L196.927 72.7505C192.443 71.2138 187.625 73.7975 186.167 78.5212L156.831 173.52C155.372 178.244 157.825 183.319 162.309 184.856L303.898 233.377C308.382 234.914 313.199 232.33 314.658 227.606L343.994 132.607C345.452 127.883 343 122.808 338.516 121.272Z" fill="#750D86"/>
<path opacity="0.2" d="M338.516 121.272L196.927 72.7505C192.443 71.2138 187.625 73.7975 186.167 78.5212L156.831 173.52C155.372 178.244 157.825 183.319 162.309 184.856L303.898 233.377C308.382 234.914 313.199 232.33 314.658 227.606L343.994 132.607C345.452 127.883 343 122.808 338.516 121.272Z" fill="white"/>
<path opacity="0.2" d="M216.665 203.483L193.675 195.596L274.996 99.5006L297.995 107.378L216.665 203.483Z" fill="white"/>
<path opacity="0.2" d="M237.617 210.657L224.198 206.064L305.527 109.959L318.947 114.562L237.617 210.657Z" fill="white"/>
<path d="M242.233 87.9147L241.216 87.5662L206.391 200.34L207.408 200.688L242.233 87.9147Z" fill="white"/>
<path d="M329.599 180.8L329.93 179.729L171.286 125.363L170.955 126.434L329.599 180.8Z" fill="white"/>
<path d="M224.317 144.491C224.25 144.489 224.186 144.468 224.129 144.431C224.073 144.393 224.027 144.341 223.997 144.279C221.757 139.262 217.241 132.069 212.46 124.451C204.297 111.442 196.591 99.1541 198.995 95.9377C199.8 94.8688 201.518 94.8592 204.252 95.9377C216.4 100.618 227.278 126.329 224.673 144.193C224.661 144.272 224.625 144.346 224.571 144.403C224.517 144.46 224.447 144.497 224.371 144.51L224.317 144.491ZM200.924 95.88C200.675 95.8507 200.422 95.8823 200.186 95.9725C199.949 96.0627 199.736 96.209 199.562 96.4C197.469 99.1926 205.751 112.385 213.055 124.037C217.506 131.135 221.73 137.866 224.125 142.844C226.044 125.328 215.632 101.099 204.014 96.6215C203.03 96.1955 201.986 95.9449 200.924 95.88Z" fill="#750D86"/>
<path d="M180.621 175.258C179.745 175.272 178.873 175.142 178.035 174.873C175.292 173.91 173.912 171.377 174.031 167.266C174.131 163.866 176.115 160.457 179.927 157.125C190.119 148.199 211.72 141.718 224.371 143.75C224.431 143.756 224.487 143.779 224.536 143.817C224.584 143.854 224.622 143.904 224.646 143.962C224.673 144.018 224.687 144.081 224.687 144.144C224.687 144.208 224.673 144.271 224.646 144.327C217.031 156.288 192.423 175.258 180.621 175.258ZM219.188 144.116C206.61 144.116 189.187 149.99 180.384 157.694C176.727 160.891 174.835 164.117 174.744 167.323C174.634 171.06 175.813 173.371 178.254 174.199C187.98 177.483 215.404 156.942 223.704 144.443C222.207 144.227 220.699 144.118 219.188 144.116Z" fill="#750D86"/>
<path d="M234.015 178.648H233.787C230.359 178.542 227.69 177.3 225.843 174.96C220.934 168.749 222.36 155.7 224.079 143.884C224.088 143.804 224.123 143.729 224.178 143.671C224.233 143.613 224.304 143.577 224.381 143.567C224.455 143.554 224.532 143.568 224.598 143.606C224.664 143.645 224.717 143.705 224.746 143.779C226.264 147.178 228.019 150.731 229.701 154.179C234.838 164.627 239.272 173.66 237.169 177.175C236.813 177.691 236.334 178.1 235.78 178.358C235.227 178.617 234.618 178.717 234.015 178.648ZM224.609 145.204C222.991 156.499 221.867 168.72 226.437 174.478C228.165 176.674 230.597 177.8 233.86 177.897C235.24 177.945 236.136 177.579 236.602 176.78C238.485 173.621 233.933 164.338 229.107 154.516C227.516 151.425 225.962 148.256 224.563 145.184L224.609 145.204Z" fill="#750D86"/>
<path d="M235.094 145.107C231.49 145.118 227.891 144.845 224.326 144.289C224.273 144.279 224.224 144.257 224.179 144.226C224.135 144.194 224.098 144.153 224.07 144.106C224.049 144.054 224.039 143.998 224.039 143.942C224.039 143.886 224.049 143.83 224.07 143.779C225.989 138.617 232.343 133.638 239.162 131.944C245.085 130.47 250.442 131.655 254.254 135.275C256.183 137.105 256.082 138.607 255.662 139.541C253.989 143.22 244.747 145.107 235.094 145.107ZM224.874 143.615C237.983 145.637 253.093 143.461 254.995 139.224C255.461 138.193 255.04 137.057 253.751 135.824C250.095 132.377 244.985 131.26 239.299 132.675C232.891 134.274 226.922 138.829 224.874 143.615Z" fill="#750D86"/>
<path d="M219.746 186.65C218.832 186.65 217.863 185.812 216.729 184.098C210.98 175.431 214.956 153.909 224.189 143.759C224.24 143.701 224.308 143.662 224.382 143.648C224.456 143.634 224.533 143.646 224.6 143.682C224.669 143.718 224.726 143.778 224.76 143.851C224.795 143.923 224.806 144.006 224.792 144.087C224.097 148.314 223.923 154.997 223.732 162.075C223.357 176.317 222.909 185.716 220.166 186.583C220.03 186.624 219.888 186.647 219.746 186.65ZM223.96 145.184C215.477 155.44 211.93 175.451 217.36 183.703C218.448 185.341 219.362 186.101 220.011 185.889C222.461 185.119 222.753 172.88 223.064 162.085C223.192 155.604 223.357 149.47 223.96 145.184Z" fill="white"/>
<path d="M256.046 156.769C245.744 156.769 230.907 151.068 224.198 144.25C224.153 144.207 224.12 144.152 224.103 144.091C224.085 144.03 224.083 143.966 224.097 143.904C224.106 143.842 224.132 143.784 224.17 143.736C224.209 143.688 224.26 143.653 224.317 143.634C235.003 139.262 261.796 139.05 266.915 146.128C268.304 148.054 268.076 150.356 266.238 152.936C264.721 155.065 261.997 156.316 258.139 156.644C257.463 156.74 256.768 156.769 256.046 156.769ZM225.103 144.154C232.37 151.107 248.175 156.788 258.084 155.931C261.741 155.623 264.282 154.477 265.662 152.522C267.289 150.24 267.491 148.256 266.348 146.619C261.595 140.013 235.725 140.129 225.103 144.154Z" fill="white"/>
<path d="M224.317 144.491C224.266 144.505 224.212 144.505 224.161 144.491C224.093 144.454 224.037 144.394 224.003 144.322C223.968 144.249 223.957 144.167 223.969 144.087C225.386 135.516 230.176 117.942 238.175 112.771C239.168 112.081 240.293 111.631 241.471 111.455C242.649 111.278 243.849 111.379 244.985 111.75C245.598 111.881 246.166 112.187 246.627 112.633C247.087 113.079 247.424 113.65 247.599 114.283C248.769 119.386 238.458 129.969 230.231 138.472C228.128 140.639 226.145 142.681 224.573 144.414C224.499 144.473 224.408 144.5 224.317 144.491ZM242.599 112.077C241.151 112.098 239.738 112.549 238.522 113.377C232.013 117.595 226.968 131.462 224.874 143.018C226.3 141.487 227.973 139.753 229.737 137.943C237.434 130.018 247.974 119.165 246.895 114.475C246.749 113.967 246.473 113.512 246.097 113.159C245.722 112.805 245.261 112.568 244.765 112.472C244.075 112.229 243.354 112.096 242.626 112.077H242.599Z" fill="white"/>
<path d="M217.26 146.35C214.725 146.347 212.214 145.844 209.855 144.867C205.44 143.008 202.542 139.724 201.628 135.613C201.162 133.484 201.884 132.55 202.542 132.146C206.199 129.979 217.534 136.778 224.481 143.846C224.521 143.885 224.552 143.933 224.571 143.986C224.59 144.04 224.597 144.097 224.591 144.154C224.586 144.209 224.57 144.261 224.543 144.308C224.516 144.355 224.479 144.394 224.435 144.424C222.263 145.765 219.776 146.433 217.26 146.35ZM204.316 132.483C203.835 132.459 203.357 132.565 202.926 132.791C202.231 133.205 202.012 134.101 202.323 135.439C203.164 139.291 205.934 142.411 210.12 144.173C214.801 146.147 220.432 146.099 223.741 144.058C217.314 137.693 208.42 132.483 204.316 132.483Z" fill="white"/>
<path opacity="0.2" d="M243.285 211.389L153.801 301.437L257.783 296.372L361.792 291.316L264.895 210.262C261.772 207.667 257.862 206.351 253.889 206.558C249.916 206.765 246.149 208.481 243.285 211.389Z" fill="#750D86"/>
<path d="M246.347 214.008L153.801 301.389L257.783 296.372L361.792 291.316L262.052 213.247C259.751 211.449 256.932 210.542 254.071 210.681C251.209 210.819 248.481 211.995 246.347 214.008Z" fill="#750D86"/>
<path opacity="0.8" d="M246.347 214.008L153.801 301.389L257.783 296.372L361.792 291.316L262.052 213.247C259.751 211.449 256.932 210.542 254.071 210.681C251.209 210.819 248.481 211.995 246.347 214.008Z" fill="white"/>
<path d="M149.432 151.684L147.832 149.219C147.534 148.764 147.137 148.39 146.675 148.129C146.212 147.868 145.697 147.726 145.172 147.717L140.19 147.621C139.209 147.602 138.239 147.831 137.359 148.288C136.48 148.746 135.717 149.418 135.135 150.25L134.404 151.299C136.799 155.575 142.375 158.329 142.375 158.329L143.883 159.292C144.187 159.501 144.527 159.644 144.883 159.714C145.24 159.783 145.606 159.777 145.961 159.697C146.315 159.616 146.651 159.462 146.949 159.244C147.246 159.026 147.5 158.748 147.695 158.425L149.569 155.305C149.879 154.752 150.031 154.116 150.007 153.474C149.982 152.831 149.783 152.21 149.432 151.684Z" fill="#FFC3BD"/>
</svg>
