<svg width="364" height="277" viewBox="0 0 364 277" fill="none" xmlns="http://www.w3.org/2000/svg">
<path d="M336.003 238.878C326.275 227.575 318.176 218.832 310.68 209.891C306.402 204.616 301.631 198.689 309.77 194.691C326.834 211.725 344.536 227.406 358.925 245.489C365.096 253.074 364.202 257.286 357.949 260.987C355.689 262.387 352.937 263.135 350.525 263.933C336.84 267.972 323.155 272.01 309.054 275.697C304.492 277.043 299.175 277.987 294.328 271.759C289.973 266.183 291.886 262.124 295.879 259.823C300.475 257.324 305.64 255.778 310.728 253.931C314.347 252.733 318.306 251.587 320.787 248.481C318.749 248.177 316.71 247.872 314.672 247.568C291.911 244.167 282.537 238.131 268.973 218.143C258.363 202.073 251.074 186.21 248.652 170.205C248 166.342 247.348 162.478 246.772 158.916C243.407 143.059 234.899 136.574 218.642 138.2C210.343 138.988 202.842 141.633 195.113 143.375C172.075 149.203 155.643 142.402 136.56 118.693C122.248 100.911 111.708 82.5342 105.618 63.6634C103.828 57.8919 101.962 51.8193 99.2297 46.1966C94.5625 36.8085 88.8563 33.6383 80.7521 36.483C71.9686 39.2263 64.5857 43.6272 56.7868 47.6763C51.2478 50.3249 46.6171 53.9784 40.6621 56.2752C28.4124 60.818 14.0335 59.5385 -1.42852 48.8271C-12.9592 40.731 -24.3791 31.7824 -35.1958 22.6342C-42.2682 16.6526 -47.0807 9.27066 -44.3504 0.698225C-40.6825 3.56382 -37.7703 6.02681 -34.5184 8.54055C-23.0223 17.7903 -11.5261 27.04 0.496846 35.7891C12.1038 44.1863 22.3298 44.5555 30.6556 40.0058C37.775 35.8551 44.0624 31.0008 51.2581 27.1513C57.9271 23.8024 64.5197 20.1524 72.3259 18.7116C89.0683 15.1298 106.943 25.0429 115.709 42.8651C119.731 50.9981 122.547 59.5302 124.947 67.7104C130.087 84.1217 139.677 100.039 152.02 115.209C162.394 127.768 168.551 130.136 180.918 127.349C191.137 125.11 200.787 121.917 211.727 121.234C218.743 120.544 227.729 122.466 236 125.44C250.352 130.482 259.775 140.58 263.244 152.976C264.922 159.6 266.338 166.474 266.658 172.895C267.831 187.845 275.911 202.957 285.536 217.721C290.272 224.802 296.096 229.728 305.269 231.099C314.441 232.469 323.732 235.596 336.003 238.878Z" fill="#30C067"/>
</svg>
